<svg width="38" height="38" viewBox="0 0 38 38" fill="none" xmlns="http://www.w3.org/2000/svg">
<path d="M19 0C8.48667 0 0 8.48667 0 19C0 29.5133 8.48667 38 19 38C29.5133 38 38 29.5133 38 19C38 8.48667 29.5133 0 19 0ZM31.7933 31.7933C28.3733 35.2133 23.8133 37.0711 19 37.0711C14.1867 37.0711 9.62667 35.1711 6.20667 31.7933C2.78667 28.3733 0.928889 23.8133 0.928889 19C0.928889 14.1867 2.82889 9.62667 6.20667 6.20667C6.29111 6.12222 6.37556 6.03778 6.46 5.95333C6.37556 6.16444 6.33333 6.33333 6.20667 6.50222C5.95333 6.88222 5.48889 7.05111 5.19333 7.43111C4.94 7.76889 4.72889 8.27556 4.64444 8.65556C4.56 9.07778 4.60222 9.58444 4.47556 10.0067C4.30667 10.5133 3.96889 10.8511 4.01111 11.4422C4.72889 11.6533 4.43333 10.3444 5.06667 10.3022C5.27778 10.8089 5.15111 11.6956 5.06667 12.2444C4.98222 12.9622 4.85556 13.1733 5.27778 13.7644C5.61556 14.2711 5.74222 14.6089 6.41778 14.6511C7.05111 14.7356 7.30444 14.9889 7.55778 15.58C8.02222 15.6644 8.31778 15.7489 8.36 16.2978C8.57111 16.4244 8.95111 16.7622 9.16222 16.8467C9.45778 16.9311 10.0067 16.4667 10.3022 16.8467C10.8089 17.4378 9.66889 18.9156 9.45778 19.4222C9.16222 20.1822 9.12 21.28 9.83778 21.8289C10.2178 22.1244 10.5978 22.2511 10.7244 22.7578C10.8511 23.2222 10.7667 23.6022 10.9778 24.0667C11.3156 24.7422 12.0333 24.9956 12.5822 25.5022C13.2578 26.1778 13.2156 27.1067 13.2156 28.0778C13.2156 29.0911 13.5956 29.8933 13.7222 30.8222C13.8489 31.7933 14.1444 32.68 14.3556 33.6511C14.5244 34.3689 15.1156 35.4244 16.0022 35.2978C16.0444 34.96 15.7067 34.7067 15.6644 34.3689C15.6222 34.0733 15.7067 33.7356 15.6644 33.44C15.5378 32.8067 15.5378 32.4267 15.96 31.8778C16.1289 31.6667 16.2978 31.54 16.4667 31.3289C16.7622 30.9489 16.5511 31.0756 16.5089 30.6533C16.5089 30.1467 16.6356 30.4 16.9733 30.2311C17.1422 30.1467 17.3111 29.8933 17.4378 29.7667C17.7333 29.4711 18.1556 29.1333 18.3667 28.7956C18.62 28.4156 18.5778 27.8667 18.8311 27.4867C19.1267 27.0222 19.5067 27.0222 19.8867 26.7267C20.3933 26.3467 20.1822 25.9244 20.2667 25.4178C20.4356 24.5311 20.8156 23.6022 21.3644 22.8844C22.04 21.9978 22.3356 21.28 21.4911 20.4356C21.0689 20.0133 20.8578 20.14 20.3089 19.9711C19.8867 19.8444 19.5067 19.5489 19.0844 19.5067C18.8311 19.4644 18.6622 19.5489 18.4511 19.5067C18.24 19.4644 18.24 19.2956 18.0289 19.3378C17.6911 19.3378 17.1844 20.0556 16.9311 19.5911C16.7622 19.3378 17.2689 18.62 17.2267 18.2822C17.1844 17.86 17.0578 17.1844 16.6356 16.9311C16.4667 16.8889 16.1289 16.8889 15.96 16.8044C15.7489 16.72 15.4956 16.5933 15.3267 16.4667C15.0733 16.2978 14.5667 16.0022 14.44 15.7067C14.1022 15.7067 13.8911 15.4956 13.5533 15.5378C13.2578 15.5378 13.0467 15.6644 12.7511 15.6222C12.4556 15.58 12.16 15.3689 11.8644 15.4111C11.6533 15.4533 11.3578 15.7067 11.1889 15.7911C10.7244 16.0444 10.26 16.2556 9.75333 16.34C8.95111 16.4667 8.82444 16.1711 8.86667 15.4533L8.74 15.2C9.03556 14.3978 8.48667 14.3133 7.93778 14.1444C7.85333 13.5533 8.57111 13.1733 8.27556 12.54C7.68444 12.4978 7.00889 14.1867 6.50222 13.4689C6.16444 13.0044 6.67111 11.6533 6.96667 11.2311C7.26222 10.8089 8.36 10.0911 8.86667 10.0067C9.24667 9.96445 9.62667 10.1333 9.75333 10.4711C9.92222 10.8511 9.71111 11.1889 9.75333 11.6533C10.26 11.5267 10.1333 10.8933 10.0911 10.5556C10.0489 9.96444 10.3444 10.0067 10.64 9.62667C10.8933 9.24667 10.9356 8.82444 11.2733 8.44444C11.5267 8.14889 11.8222 7.85333 12.1178 7.6C12.4556 7.30444 12.7933 7.34667 13.1311 7.09333C13.6378 6.75556 12.9622 6.12222 13.7222 6.16444C13.9756 6.16444 13.8489 6.33333 14.2289 6.24889C14.3978 6.20667 14.6511 6.08 14.82 5.99556C15.5378 5.7 15.0311 5.61556 14.6933 5.23556C14.2711 4.77111 14.8622 4.85556 15.2844 4.77111C15.58 4.72889 15.5378 4.60222 15.7911 4.81333C16.0444 4.98222 15.8756 5.19333 16.2556 5.19333C16.9311 5.15111 16.4667 4.47556 16.2978 4.26444C16.0444 3.88444 15.96 3.63111 15.4111 3.58889C15.4533 3.42 15.4533 3.20889 15.4111 3.04C14.9467 3.08222 14.8622 2.78667 14.5244 2.61778C13.9333 2.40667 14.0178 2.87111 13.8067 3.20889C13.5533 3.54667 13.0889 3.50444 12.92 3.88444C12.7511 4.30667 12.92 4.64444 12.2444 4.51778C12.3289 4.26444 12.2867 3.92667 12.2867 3.67333C12.0756 3.63111 11.9067 3.58889 11.7378 3.54667C11.7378 2.87111 12.4978 2.78667 13.0044 2.74444C13.5956 2.66 13.7644 2.06889 14.2711 1.98444C14.7356 1.9 15.1156 2.66 15.7067 2.23778C16.0444 1.98444 15.8756 1.81556 15.7489 1.56222C15.7067 1.47778 15.5378 1.35111 15.4956 1.26667C15.96 1.18222 16.4244 1.09778 16.8889 1.05556C16.9733 1.30889 17.1844 1.60444 17.2689 1.81556C17.3533 1.94222 17.48 2.02667 17.5644 2.19556C17.6489 2.36444 17.48 2.57556 17.6911 2.66C18.0289 2.82889 18.9156 1.73111 19.1689 1.56222C19.4644 1.35111 19.6333 1.22444 19.5489 0.971111C21.0267 1.01333 22.5044 1.22444 23.8978 1.64667C24.0244 1.77333 24.1089 1.94222 24.2356 2.06889C24.4889 2.40667 24.6578 2.70222 25.08 2.87111C25.3333 2.91333 26.1778 2.91333 25.84 3.50444C25.5444 4.05333 25.1644 3.33556 24.9956 3.16667C24.7844 2.91333 24.1089 2.66 24.1511 3.20889C24.1933 4.01111 26.0089 3.88444 25.6289 4.77111C25.84 4.89778 26.2622 5.10889 26.22 5.44667C26.1356 5.82667 25.6289 5.57333 25.6289 6.08C25.6289 6.79778 26.4311 7.38889 27.1489 7.13556C27.9089 6.88222 27.3178 5.78444 28.2044 5.7C28.5422 5.65778 28.7533 5.74222 29.0489 5.99556C29.3022 6.20667 29.4711 6.67111 29.8089 6.62889C29.8511 6.41778 29.6822 6.24889 29.64 6.03778C29.8933 6.12222 30.4422 6.46 30.6111 6.67111C30.8644 7.00889 30.8222 7.55778 31.4133 7.09333C31.3289 7.00889 31.2867 6.88222 31.2444 6.79778C31.9622 6.79778 32.4689 7.09333 32.8067 7.72667C33.5244 9.16222 31.7933 8.02222 31.7089 8.74C31.2867 8.61333 31.0756 8.27556 30.7378 8.06444C30.5689 7.98 30.2311 8.02222 30.1044 7.93778C29.9356 7.81111 29.9778 7.55778 29.8089 7.43111C29.1756 6.92444 27.6978 7.76889 27.1067 8.10667C26.9378 8.19111 26.7689 8.19111 26.6844 8.36C26.5156 8.65556 26.7689 8.74 26.6844 8.99333C26.6 9.37333 26.0933 9.58444 25.9244 9.88C25.5444 10.64 26.3044 11.7378 26.22 12.5822C26.1778 13.0467 25.6711 13.5533 25.84 13.9333C25.9244 14.1022 26.22 14.2289 26.3044 14.44C26.3889 14.6089 26.4311 14.8622 26.6 15.0311C27.0222 15.6222 27.6556 16.2978 28.1622 16.8889C28.4578 17.2267 28.8378 17.3111 29.26 17.2267C29.5978 17.1422 30.1467 17.0156 30.4844 16.8889C30.9067 16.6778 30.9911 16.3822 31.4556 16.5933C31.8356 16.7622 32.1311 17.2267 32.5956 16.8467C32.9333 17.1844 32.5533 17.8178 32.4689 18.1978C32.3844 18.7044 32.5533 19.1267 32.8489 19.5489C33.2289 20.0556 33.3133 20.14 33.2289 20.8156C33.1867 21.3222 33.0178 21.8289 32.9333 22.3356C32.8067 22.8422 32.5111 23.2222 32.5111 23.7289C32.5111 24.2356 32.7222 24.6156 32.68 25.1222C32.6378 25.5867 32.5956 26.1356 32.4689 26.6C32.3422 27.0644 32.0044 27.4867 31.8778 27.9511C31.7511 28.4156 31.7933 29.0067 32.0889 29.3444C32.4267 29.7244 32.7222 29.5133 33.1444 29.2178C33.9044 28.6267 34.2422 27.6556 34.7489 26.8956C35.2556 26.0933 35.8044 25.3756 36.1422 24.5733C36.2267 24.4044 36.3111 24.2356 36.3956 24.0667C35.5511 26.8956 33.9889 29.5978 31.7933 31.7933Z" fill="white"/>
</svg>
